HIERARCHY
ROOT Hips
{
	OFFSET 0.000000 83.214638 0.000000
	CHANNELS 6 Xposition Yposition Zposition Xrotation Yrotation Zrotation
	JOINT Pelvis
	{
		OFFSET 0.000000 0.000000 0.000000
		CHANNELS 3 Xrotation Yrotation Zrotation
		JOINT LeftUpLeg
		{
			OFFSET 8.479700 -4.795502 -0.379100
			CHANNELS 3 Xrotation Yrotation Zrotation
			JOINT LeftLeg
			{
				OFFSET 0.024144 -32.555107 0.112900
				CHANNELS 3 Xrotation Yrotation Zrotation
				JOINT LeftFoot
				{
					OFFSET -0.024144 -32.638630 -3.012600
					CHANNELS 3 Xrotation Yrotation Zrotation
					JOINT LeftToeBase
					{
						OFFSET 0.970200 -13.225400 11.864200
						CHANNELS 3 Xrotation Yrotation Zrotation
						End Site
						{
							OFFSET 0.000000 12.319262 0.000000
						}
					}
					JOINT LFootTongue
					{
						OFFSET 1.142400 -1.059800 6.665200
						CHANNELS 3 Xrotation Yrotation Zrotation
						End Site
						{
							OFFSET 0.000000 12.319262 0.000000
						}
					}
				}
				JOINT LeftPantLeg
				{
					OFFSET 0.918482 -16.533964 -2.284700
					CHANNELS 3 Xrotation Yrotation Zrotation
					End Site
					{
						OFFSET 0.350399 24.744368 0.000000
					}
				}
			}
		}
		JOINT RightUpLeg
		{
			OFFSET -8.479700 -4.795502 -0.379100
			CHANNELS 3 Xrotation Yrotation Zrotation
			JOINT RightLeg
			{
				OFFSET -0.023144 -32.555092 0.112900
				CHANNELS 3 Xrotation Yrotation Zrotation
				JOINT RightFoot
				{
					OFFSET 0.023144 -32.638641 -3.012700
					CHANNELS 3 Xrotation Yrotation Zrotation
					JOINT RightToeBase
					{
						OFFSET -0.970200 -13.225400 11.864200
						CHANNELS 3 Xrotation Yrotation Zrotation
						End Site
						{
							OFFSET 0.000000 12.319244 0.000000
						}
					}
					JOINT RFootTongue
					{
						OFFSET -1.142200 -1.059800 6.665200
						CHANNELS 3 Xrotation Yrotation Zrotation
						End Site
						{
							OFFSET 0.000000 12.319243 0.000000
						}
					}
				}
				JOINT RightPantLeg
				{
					OFFSET -0.919482 -16.533978 -2.284800
					CHANNELS 3 Xrotation Yrotation Zrotation
					End Site
					{
						OFFSET -0.350400 24.744419 0.000000
					}
				}
			}
		}
	}
	JOINT Spine
	{
		OFFSET 0.000000 7.722000 1.166200
		CHANNELS 3 Xrotation Yrotation Zrotation
		JOINT Spine1
		{
			OFFSET 0.000000 12.024101 0.248800
			CHANNELS 3 Xrotation Yrotation Zrotation
			JOINT Spine2
			{
				OFFSET 0.000000 11.502998 -0.491200
				CHANNELS 3 Xrotation Yrotation Zrotation
				JOINT Neck
				{
					OFFSET 0.000000 18.430702 -3.123100
					CHANNELS 3 Xrotation Yrotation Zrotation
					JOINT Head
					{
						OFFSET 0.000000 9.051102 1.034000
						CHANNELS 3 Xrotation Yrotation Zrotation
						JOINT HairB
						{
							OFFSET 0.208400 24.786102 24.822300
							CHANNELS 3 Xrotation Yrotation Zrotation
							End Site
							{
								OFFSET 0.000000 32.263779 0.000000
							}
						}
						JOINT HairA
						{
							OFFSET -7.081100 24.428299 23.196600
							CHANNELS 3 Xrotation Yrotation Zrotation
							End Site
							{
								OFFSET 0.000000 32.263779 0.000000
							}
						}
						JOINT Hat
						{
							OFFSET 16.728800 15.048294 -15.439601
							CHANNELS 3 Xrotation Yrotation Zrotation
							End Site
							{
								OFFSET 0.000000 32.263779 0.000000
							}
						}
					}
				}
				JOINT LeftShoulder
				{
					OFFSET 6.197800 13.665199 -4.064700
					CHANNELS 3 Xrotation Yrotation Zrotation
					JOINT LeftArm
					{
						OFFSET 7.778100 -0.187103 -1.709300
						CHANNELS 3 Xrotation Yrotation Zrotation
						JOINT LeftForeArm
						{
							OFFSET 22.049376 0.000000 0.000000
							CHANNELS 3 Xrotation Yrotation Zrotation
							JOINT LeftHand
							{
								OFFSET 23.009392 0.000000 0.000000
								CHANNELS 3 Xrotation Yrotation Zrotation
								JOINT LeftHandThumb1
								{
									OFFSET 3.507191 -2.063065 3.133727
									CHANNELS 3 Xrotation Yrotation Zrotation
									JOINT LeftHandThumb2
									{
										OFFSET 3.101337 -1.790558 1.790558
										CHANNELS 3 Xrotation Yrotation Zrotation
										JOINT LeftHandThumb3
										{
											OFFSET 3.058640 -1.765907 1.765906
											CHANNELS 3 Xrotation Yrotation Zrotation
											End Site
											{
												OFFSET -0.415260 3.926476 -0.049563
											}
										}
									}
								}
								JOINT LeftHandIndex1
								{
									OFFSET 11.334419 -0.901459 3.706815
									CHANNELS 3 Xrotation Yrotation Zrotation
									JOINT LeftHandIndex2
									{
										OFFSET 3.283112 0.000000 0.000000
										CHANNELS 3 Xrotation Yrotation Zrotation
										JOINT LeftHandIndex3
										{
											OFFSET 3.323853 0.000000 0.000000
											CHANNELS 3 Xrotation Yrotation Zrotation
											End Site
											{
												OFFSET -1.135597 3.097809 0.402452
											}
										}
									}
								}
								JOINT LeftHandMiddle1
								{
									OFFSET 11.335861 0.000000 0.000000
									CHANNELS 3 Xrotation Yrotation Zrotation
									JOINT LeftHandMiddle2
									{
										OFFSET 3.410492 0.000000 0.000000
										CHANNELS 3 Xrotation Yrotation Zrotation
										JOINT LeftHandMiddle3
										{
											OFFSET 3.312172 0.000000 0.000000
											CHANNELS 3 Xrotation Yrotation Zrotation
											End Site
											{
												OFFSET -1.150200 3.080154 0.400270
											}
										}
									}
								}
								JOINT LeftHandRing1
								{
									OFFSET 11.514786 -0.013176 -3.003090
									CHANNELS 3 Xrotation Yrotation Zrotation
									JOINT LeftHandRing2
									{
										OFFSET 3.053307 0.000000 0.000000
										CHANNELS 3 Xrotation Yrotation Zrotation
										JOINT LeftHandRing3
										{
											OFFSET 3.295807 0.000000 0.000000
											CHANNELS 3 Xrotation Yrotation Zrotation
											End Site
											{
												OFFSET -1.281006 3.013344 0.375733
											}
										}
									}
								}
								JOINT LeftHandPinky1
								{
									OFFSET 10.518692 -0.960396 -5.730441
									CHANNELS 3 Xrotation Yrotation Zrotation
									JOINT LeftHandPinky2
									{
										OFFSET 2.861649 0.000000 0.000000
										CHANNELS 3 Xrotation Yrotation Zrotation
										JOINT LeftHandPinky3
										{
											OFFSET 2.863380 0.000000 0.000000
											CHANNELS 3 Xrotation Yrotation Zrotation
											End Site
											{
												OFFSET -0.843597 2.711159 0.369971
											}
										}
									}
								}
							}
							JOINT LSleeve
							{
								OFFSET 6.676277 -0.344902 -1.011730
								CHANNELS 3 Xrotation Yrotation Zrotation
								End Site
								{
									OFFSET 0.000000 14.885353 0.000000
								}
							}
						}
					}
				}
				JOINT RightShoulder
				{
					OFFSET -6.197800 13.665199 -4.064700
					CHANNELS 3 Xrotation Yrotation Zrotation
					JOINT RightArm
					{
						OFFSET -7.778100 -0.187103 -1.709300
						CHANNELS 3 Xrotation Yrotation Zrotation
						JOINT RightForeArm
						{
							OFFSET -22.049376 0.000000 0.000000
							CHANNELS 3 Xrotation Yrotation Zrotation
							JOINT RightHand
							{
								OFFSET -23.009392 0.000000 0.000000
								CHANNELS 3 Xrotation Yrotation Zrotation
								JOINT RightHandThumb1
								{
									OFFSET -3.507191 -2.063065 3.133727
									CHANNELS 3 Xrotation Yrotation Zrotation
									JOINT RightHandThumb2
									{
										OFFSET -3.101337 -1.790558 1.790558
										CHANNELS 3 Xrotation Yrotation Zrotation
										JOINT RightHandThumb3
										{
											OFFSET -3.058640 -1.765907 1.765906
											CHANNELS 3 Xrotation Yrotation Zrotation
											End Site
											{
												OFFSET 0.415260 3.926476 -0.049563
											}
										}
									}
								}
								JOINT RightHandIndex1
								{
									OFFSET -11.334419 -0.901459 3.706815
									CHANNELS 3 Xrotation Yrotation Zrotation
									JOINT RightHandIndex2
									{
										OFFSET -3.283112 0.000000 0.000000
										CHANNELS 3 Xrotation Yrotation Zrotation
										JOINT RightHandIndex3
										{
											OFFSET -3.323853 0.000000 0.000000
											CHANNELS 3 Xrotation Yrotation Zrotation
											End Site
											{
												OFFSET 1.135597 3.097809 0.402452
											}
										}
									}
								}
								JOINT RightHandMiddle1
								{
									OFFSET -11.335861 0.000000 0.000000
									CHANNELS 3 Xrotation Yrotation Zrotation
									JOINT RightHandMiddle2
									{
										OFFSET -3.410492 0.000000 0.000000
										CHANNELS 3 Xrotation Yrotation Zrotation
										JOINT RightHandMiddle3
										{
											OFFSET -3.312172 0.000000 0.000000
											CHANNELS 3 Xrotation Yrotation Zrotation
											End Site
											{
												OFFSET 1.150200 3.080154 0.400270
											}
										}
									}
								}
								JOINT RightHandRing1
								{
									OFFSET -11.514786 -0.013176 -3.003090
									CHANNELS 3 Xrotation Yrotation Zrotation
									JOINT RightHandRing2
									{
										OFFSET -3.053307 0.000000 0.000000
										CHANNELS 3 Xrotation Yrotation Zrotation
										JOINT RightHandRing3
										{
											OFFSET -3.295807 0.000000 0.000000
											CHANNELS 3 Xrotation Yrotation Zrotation
											End Site
											{
												OFFSET 1.281006 3.013344 0.375733
											}
										}
									}
								}
								JOINT RightHandPinky1
								{
									OFFSET -10.518692 -0.960396 -5.730441
									CHANNELS 3 Xrotation Yrotation Zrotation
									JOINT RightHandPinky2
									{
										OFFSET -2.861649 0.000000 0.000000
										CHANNELS 3 Xrotation Yrotation Zrotation
										JOINT RightHandPinky3
										{
											OFFSET -2.863380 0.000000 0.000000
											CHANNELS 3 Xrotation Yrotation Zrotation
											End Site
											{
												OFFSET 0.843597 2.711159 0.369971
											}
										}
									}
								}
							}
							JOINT RSleeve
							{
								OFFSET -6.676277 -0.344902 -1.011730
								CHANNELS 3 Xrotation Yrotation Zrotation
								End Site
								{
									OFFSET 0.000000 14.885353 0.000000
								}
							}
						}
					}
				}
				JOINT Backpack
				{
					OFFSET 0.000000 -2.471497 36.677502
					CHANNELS 3 Xrotation Yrotation Zrotation
					End Site
					{
						OFFSET 0.000000 20.427315 0.000000
					}
				}
				JOINT Hood
				{
					OFFSET 0.000000 18.754097 -10.431000
					CHANNELS 3 Xrotation Yrotation Zrotation
					JOINT Hood1
					{
						OFFSET 0.000000 -5.011002 -7.685901
						CHANNELS 3 Xrotation Yrotation Zrotation
						End Site
						{
							OFFSET 0.000000 9.175140 0.000000
						}
					}
				}
				JOINT LHoodieString
				{
					OFFSET 5.250500 16.397697 3.089900
					CHANNELS 3 Xrotation Yrotation Zrotation
					JOINT LHoodieString1
					{
						OFFSET 0.257700 -6.364304 3.694600
						CHANNELS 3 Xrotation Yrotation Zrotation
						JOINT LHoodieString2
						{
							OFFSET 0.000000 -9.643799 2.679100
							CHANNELS 3 Xrotation Yrotation Zrotation
							End Site
							{
								OFFSET 0.000000 10.009018 0.000000
							}
						}
					}
				}
				JOINT RHoodieString
				{
					OFFSET -5.250500 16.397697 3.089900
					CHANNELS 3 Xrotation Yrotation Zrotation
					JOINT RHoodieString1
					{
						OFFSET -0.257700 -6.364304 3.694600
						CHANNELS 3 Xrotation Yrotation Zrotation
						JOINT RHoodieString2
						{
							OFFSET 0.000000 -9.643799 2.679100
							CHANNELS 3 Xrotation Yrotation Zrotation
							End Site
							{
								OFFSET 0.000000 10.009018 0.000000
							}
						}
					}
				}
			}
			JOINT LBackpack_Strap
			{
				OFFSET 15.223200 -7.719803 -6.610900
				CHANNELS 3 Xrotation Yrotation Zrotation
				End Site
				{
					OFFSET 0.000000 16.040596 0.000000
				}
			}
			JOINT RBackpack_Strap
			{
				OFFSET -15.223000 -7.719803 -6.610900
				CHANNELS 3 Xrotation Yrotation Zrotation
				End Site
				{
					OFFSET 0.000000 16.040596 0.000000
				}
			}
		}
	}
	JOINT BoyFacialAnim_Joint
	{
		OFFSET 1.000000 -82.208099 -1.550900
		CHANNELS 3 Xrotation Yrotation Zrotation
		End Site
		{
			OFFSET 0.000000 30.012791 0.000000
		}
	}
}
MOTION
Frames: 4
Frame Time: 0.016667
-1.970240 76.852280 41.881947 29.867191 6.554597 -18.029317 0.000002 -0.000000 0.000001 -68.184330 -2.053324 13.110740 40.339357 7.322279 -7.514121 -3.176445 -0.026039 7.824310 0.000000 0.000000 -0.000000 0.000000 0.000000 -0.000000 -0.000000 0.000002 -0.000001 -14.956910 -23.417001 -20.668123 79.874500 -5.528055 -3.186948 32.009354 0.870444 3.028248 0.000001 0.000001 0.000001 0.000001 0.000001 0.000001 -0.000000 0.000003 -0.000000 6.064239 11.589721 -8.033342 11.648225 11.205354 -7.545695 11.698383 11.155145 -7.567844 -9.883403 -7.149090 7.463528 -30.256331 -33.917661 18.385674 0.000001 0.000000 0.000000 0.000001 0.000000 0.000000 0.000001 0.000000 0.000000 -0.266300 3.848956 2.890089 28.180051 -44.869814 -18.300128 -0.000001 -24.379723 -0.000020 -6.282340 38.816990 -1.221442 -3.708765 -5.344631 -9.285594 10.685395 16.536434 0.020097 0.000001 -0.000001 0.000001 0.013962 0.439246 -3.642314 0.025895 0.597752 -4.959530 -0.000001 0.000003 -0.000001 0.013845 0.437326 -3.626335 0.026047 0.599673 -4.975525 0.000000 -0.000002 0.000001 0.013965 0.439250 -3.642324 0.025890 0.597757 -4.959531 -0.000003 -0.000001 -0.000002 0.254044 4.486452 -3.142208 0.013183 -3.456760 -5.468407 -0.000001 0.000002 0.000000 0.000000 0.000002 0.000000 4.952147 16.802281 -7.381359 -6.598526 60.118219 21.651621 -0.000006 37.609105 0.000011 -29.432600 -31.794995 -16.154796 31.276474 -0.747336 -0.159481 -3.876759 -9.680796 -4.069550 0.000000 -0.000002 -0.000002 0.578518 -2.781502 23.494922 0.464470 -2.503103 21.020968 -0.000004 -0.000000 0.000000 0.578519 -2.781506 23.494927 0.464466 -2.503100 21.020980 0.000001 0.000000 -0.000000 0.578527 -2.781496 23.494932 0.464468 -2.503102 21.020969 -0.000004 0.000000 0.000002 0.578522 -2.781495 23.494918 0.464469 -2.503105 21.020976 -0.000001 0.000003 -0.000001 0.000001 -0.000000 -0.000001 0.000003 -0.000001 0.000000 0.000003 -0.000001 0.000000 0.000003 -0.000001 0.000000 0.000003 -0.000001 0.000000 0.000003 -0.000001 0.000000 0.000001 -0.000001 0.000000 0.000003 -0.000001 0.000000 0.000003 -0.000001 0.000000 0.000001 -0.000001 0.000000 0.000002 0.000000 0.000001 0.000002 0.000000 0.000001 0.000002 -0.000000 0.000001 
-2.013317 76.800186 42.030609 28.992295 7.038434 -17.879321 -0.000001 -0.000001 -0.000000 -67.476142 -1.510157 13.171045 40.850873 6.668356 -7.393222 -3.589467 -0.025596 7.853229 -0.000000 0.000002 -0.000000 -0.000000 0.000002 0.000000 -0.000000 0.000001 0.000001 -15.827135 -23.170105 -20.012435 78.019571 -4.528524 -3.295754 32.083810 0.610971 1.943998 -0.000001 0.000002 -0.000002 -0.000001 0.000002 -0.000002 -0.000000 0.000001 -0.000000 6.077361 10.939993 -8.378998 11.676779 10.962423 -7.565066 11.760140 10.875357 -7.586995 -9.995539 -7.064436 7.301291 -30.252574 -33.572999 18.432237 0.000002 -0.000000 -0.000000 0.000002 -0.000000 -0.000000 0.000002 -0.000000 -0.000000 -0.255794 3.725911 3.215390 28.574271 -46.646009 -14.108382 0.000002 -23.223234 -0.000021 -8.175425 37.907430 -1.748931 -3.708764 -5.344632 -9.285594 10.685396 16.536436 0.020095 0.000001 -0.000001 0.000002 0.013965 0.439240 -3.642314 0.025894 0.597752 -4.959532 -0.000002 0.000000 -0.000005 0.013840 0.437325 -3.626335 0.026048 0.599673 -4.975520 0.000001 0.000001 0.000000 0.013967 0.439247 -3.642317 0.025893 0.597755 -4.959535 -0.000001 0.000000 -0.000000 0.254044 4.486452 -3.142210 0.013185 -3.456760 -5.468405 -0.000001 0.000002 -0.000002 -0.000001 0.000004 -0.000001 4.755305 16.291736 -6.875269 -6.385695 57.667130 19.002361 -0.000003 35.965597 0.000019 -31.597217 -30.685410 -17.384518 31.221362 -0.795001 -0.187894 -3.869662 -9.704029 -4.071607 0.000002 -0.000003 0.000001 0.577763 -2.779689 23.478772 0.463254 -2.499890 20.992740 -0.000002 0.000001 0.000004 0.577757 -2.779693 23.478772 0.463251 -2.499883 20.992740 0.000001 -0.000001 0.000003 0.577763 -2.779684 23.478775 0.463237 -2.499873 20.992737 0.000002 -0.000002 0.000002 0.577766 -2.779672 23.478768 0.463238 -2.499887 20.992721 0.000002 0.000001 0.000000 0.000000 -0.000002 -0.000001 0.000002 -0.000000 0.000001 0.000002 -0.000000 0.000001 0.000002 -0.000000 0.000001 0.000002 -0.000000 0.000001 0.000002 -0.000000 -0.000000 -0.000002 0.000000 -0.000000 0.000002 -0.000000 0.000001 0.000002 -0.000000 -0.000000 -0.000002 0.000000 -0.000000 -0.000000 -0.000001 0.000002 -0.000000 -0.000001 0.000002 -0.000001 -0.000001 -0.000000 
-2.042961 76.767403 42.177151 28.115842 7.515420 -17.755403 0.000002 -0.000000 -0.000001 -66.752818 -0.859290 13.253301 41.272279 5.906766 -7.198654 -3.967228 -0.026073 7.909482 -0.000000 0.000000 -0.000000 -0.000000 0.000000 -0.000000 -0.000000 -0.000001 0.000001 -16.673397 -22.832470 -19.362425 76.123025 -3.678576 -3.541440 32.101800 0.496847 1.490200 -0.000000 0.000001 -0.000002 -0.000000 0.000001 -0.000002 0.000000 0.000004 -0.000000 6.106814 10.261163 -8.731803 11.743709 10.656884 -7.606248 11.860016 10.534739 -7.618972 -10.124084 -6.973870 7.156034 -30.258763 -33.172473 18.493004 0.000001 -0.000000 0.000000 0.000001 -0.000000 0.000000 0.000001 -0.000000 0.000000 -0.246509 3.605289 3.561327 28.114706 -48.438882 -10.572358 0.000003 -21.961920 0.000007 -10.198609 36.602666 -1.666781 -3.708760 -5.344631 -9.285598 10.685395 16.536434 0.020096 0.000000 0.000000 0.000002 0.013965 0.439242 -3.642314 0.025896 0.597749 -4.959537 0.000000 -0.000004 -0.000001 0.013843 0.437323 -3.626334 0.026048 0.599670 -4.975525 -0.000003 0.000002 -0.000003 0.013966 0.439246 -3.642323 0.025889 0.597757 -4.959543 -0.000002 0.000001 -0.000002 0.254041 4.486450 -3.142207 0.013181 -3.456760 -5.468406 -0.000001 0.000001 0.000002 0.000003 0.000000 0.000001 4.570552 15.669526 -6.602624 -6.422815 55.485855 16.577503 -0.000004 34.357580 0.000017 -33.438086 -29.057394 -18.368962 31.163937 -0.844526 -0.217467 -3.862218 -9.728356 -4.073781 0.000003 -0.000001 -0.000001 0.576944 -2.777874 23.461995 0.461912 -2.496404 20.962122 -0.000001 -0.000000 0.000005 0.576936 -2.777862 23.461985 0.461910 -2.496420 20.962141 -0.000000 -0.000002 0.000003 0.576941 -2.777859 23.462000 0.461911 -2.496416 20.962139 -0.000002 0.000001 0.000001 0.576933 -2.777857 23.461992 0.461916 -2.496423 20.962137 0.000001 0.000001 -0.000001 -0.000002 0.000000 -0.000002 -0.000000 0.000001 -0.000001 -0.000000 0.000001 -0.000001 -0.000000 0.000001 -0.000001 -0.000000 0.000001 -0.000001 -0.000000 0.000001 -0.000001 -0.000001 0.000003 -0.000001 -0.000000 0.000001 -0.000001 -0.000000 0.000001 -0.000001 -0.000001 0.000003 -0.000001 0.000001 0.000000 0.000001 0.000001 0.000000 0.000001 0.000002 -0.000000 -0.000001 
-2.043905 76.749924 42.321960 27.227093 7.991931 -17.639336 0.000001 -0.000000 0.000003 -65.999421 -0.129878 13.308632 41.630693 5.100650 -6.912979 -4.326971 -0.029366 7.975292 0.000000 0.000002 -0.000000 0.000000 0.000002 -0.000000 -0.000000 0.000000 0.000000 -17.500627 -22.414782 -18.733681 74.161019 -2.948052 -3.885006 32.032809 0.459021 1.363258 0.000001 0.000000 -0.000000 0.000001 0.000000 -0.000000 0.000000 0.000000 -0.000000 6.154968 9.538605 -9.086931 11.857623 10.258347 -7.663909 12.006340 10.104660 -7.655103 -10.259055 -6.869440 7.028379 -30.230704 -32.681523 18.611092 -0.000000 -0.000000 0.000000 -0.000000 -0.000000 0.000000 -0.000000 -0.000000 0.000000 -0.235976 3.479653 3.929603 26.629958 -50.227661 -7.789995 -0.000003 -20.582007 0.000010 -12.116078 35.063838 -1.214167 -3.708763 -5.344632 -9.285595 10.685395 16.536431 0.020101 -0.000002 0.000000 -0.000001 0.013964 0.439242 -3.642311 0.025890 0.597748 -4.959527 -0.000001 -0.000001 -0.000002 0.013842 0.437322 -3.626339 0.026047 0.599674 -4.975525 -0.000001 -0.000001 -0.000000 0.013966 0.439246 -3.642321 0.025891 0.597757 -4.959533 0.000002 0.000001 0.000002 0.254046 4.486447 -3.142207 0.013183 -3.456764 -5.468406 0.000001 -0.000002 0.000001 -0.000001 0.000002 -0.000002 4.407069 14.991003 -6.564023 -6.689369 53.586010 14.333825 -0.000024 32.841452 0.000026 -34.852034 -27.174365 -18.930494 31.104408 -0.895778 -0.248183 -3.854487 -9.753750 -4.076045 -0.000001 0.000001 0.000000 0.576084 -2.775891 23.444536 0.460473 -2.492716 20.929335 -0.000002 -0.000000 0.000002 0.576086 -2.775892 23.444539 0.460474 -2.492699 20.929342 -0.000000 -0.000000 -0.000000 0.576088 -2.775883 23.444544 0.460471 -2.492710 20.929330 0.000000 0.000001 -0.000001 0.576088 -2.775876 23.444536 0.460477 -2.492710 20.929335 0.000001 -0.000000 0.000000 -0.000001 0.000001 -0.000003 0.000001 -0.000001 0.000001 0.000001 -0.000001 0.000001 0.000001 -0.000001 0.000001 0.000001 -0.000001 0.000001 0.000001 -0.000001 0.000001 -0.000001 -0.000000 -0.000001 0.000001 -0.000001 0.000001 0.000001 -0.000001 0.000001 -0.000001 -0.000000 -0.000001 -0.000001 -0.000001 0.000001 -0.000001 -0.000001 0.000001 0.000001 -0.000000 0.000003 
